<?xml version="1.0" encoding="UTF-8" standalone="no"?><!DOCTYPE svg PUBLIC "-//W3C//DTD SVG 1.1//EN" "http://www.w3.org/Graphics/SVG/1.1/DTD/svg11.dtd"><svg viewBox="2991 2300 5610 4025" version="1.1" xmlns="http://www.w3.org/2000/svg" xmlns:xlink="http://www.w3.org/1999/xlink" xml:space="preserve" xmlns:serif="http://www.serif.com/" style="fill-rule:evenodd;clip-rule:evenodd;stroke-linejoin:round;stroke-miterlimit:2;"><rect id="ArtBoard1" x="0" y="0" width="11042.6" height="7894.42" style="fill:none;"/><g><g id="Ebene-1" serif:id="Ebene 1"><path d="M3071.48,4857.5l77.971,-165.679l77.987,165.679l-155.958,0Zm48.075,-236.2l-184.342,364.967l75.663,-0l37.688,-80.071l201.791,-0l37.688,80.071l75.662,-0l-184.325,-364.967l-59.825,-0Z" style="fill:#fff;fill-rule:nonzero;"/><path d="M4018.89,4857.5l77.97,-165.679l77.984,165.679l-155.954,0Zm48.075,-236.2l-184.342,364.967l75.658,-0l37.692,-80.071l201.788,-0l37.691,80.071l75.663,-0l-184.325,-364.967l-59.825,-0Z" style="fill:#fff;fill-rule:nonzero;"/><path d="M4933.42,4691.17c18.679,-15.813 43.383,-23.713 74.095,-23.713c14.671,0 28.888,2.429 42.638,7.275c13.767,4.859 25.746,11.684 35.937,20.467c10.209,8.783 17.484,19.029 21.842,30.746l71.875,-0c-5.729,-21.754 -16.667,-40.746 -32.846,-56.979c-16.166,-16.234 -36.216,-28.871 -60.175,-37.9c-23.958,-9.042 -50.383,-13.559 -79.271,-13.559c-34.845,0 -65.329,5.642 -91.458,16.929c-26.146,11.3 -46.442,27.15 -60.887,47.567c-14.425,20.438 -21.667,44.358 -21.667,71.792l-0,100.154c-0,27.292 7.242,51.129 21.667,71.546c14.445,20.416 34.741,36.266 60.887,47.571c26.129,11.283 56.613,16.941 91.458,16.941c28.888,0 55.259,-4.512 79.096,-13.558c23.854,-9.029 43.909,-21.667 60.175,-37.9c16.284,-16.233 27.292,-35.225 33.021,-56.979l-71.875,-0c-6.65,18.908 -19.6,33.387 -38.854,43.421c-19.254,10.033 -39.775,15.07 -61.563,15.07c-30.712,0 -55.416,-7.883 -74.095,-23.612c-18.7,-15.713 -28.021,-36.546 -28.021,-62.5l-0,-100.154c-0,-25.921 9.321,-46.809 28.021,-62.625" style="fill:#fff;fill-rule:nonzero;"/><path d="M6041.21,4782.17l-213.891,-0l-0,-160.884l-70.155,0l0,364.963l70.155,-0l-0,-155.379l213.891,-0l0,155.379l70.155,-0l-0,-364.963l-70.155,0l0,160.884Z" style="fill:#fff;fill-rule:nonzero;"/><path d="M7040.92,4621.29l-321.2,-0l-0,364.962l321.2,0l-0,-48.696l-251.042,0l0,-108.179l213.208,0l0,-48.696l-213.208,0l0,-110.696l251.042,0l-0,-48.695Z" style="fill:#fff;fill-rule:nonzero;"/><path d="M7925.04,4621.29l-0.005,272.621l-236.249,-272.621l-63.626,-0l0.001,364.72l69.479,0l-0,-268.47l235.554,268.47l64.304,0l-0,-364.72l-69.458,-0Z" style="fill:#fff;fill-rule:nonzero;"/><path d="M3358.68,5694.58l-88.283,0l-0,137.417l88.283,0l0,-18.333l-69.012,-0l-0,-40.73l58.612,0l0,-18.333l-58.612,0l-0,-41.687l69.012,-0l0,-18.334Z" style="fill:#fff;fill-rule:nonzero;"/><rect x="3469.12" y="5694.58" width="19.271" height="137.413" style="fill:#fff;"/><path d="M3683.57,5764.21c-4.134,-2.675 -8.717,-4.721 -13.75,-6.145c-5.054,-1.405 -10.088,-2.621 -15.121,-3.63c-5.608,-1.129 -10.871,-2.358 -15.729,-3.645c-4.896,-1.284 -8.854,-3.28 -11.875,-5.988c-3.021,-2.725 -4.534,-6.65 -4.534,-11.825l0,-0.087c0,-6.875 2.605,-12.188 7.796,-15.938c5.192,-3.729 12.484,-5.625 21.875,-5.625c5.225,0 10.45,0.958 15.642,2.85c5.208,1.875 10.417,4.775 15.642,8.696l10.958,-15.329c-6.671,-4.842 -13.542,-8.438 -20.592,-10.817c-7.066,-2.358 -14.271,-3.542 -21.65,-3.542c-15.504,0 -27.5,3.525 -36.008,10.538c-8.504,7.033 -12.758,16.946 -12.758,29.725l-0,0.104c-0,8.004 1.337,14.392 4.029,19.183c2.671,4.792 6.212,8.455 10.625,11.009c4.408,2.55 9.233,4.425 14.512,5.625c5.242,1.196 10.467,2.237 15.625,3.125c5.363,0.883 10.296,1.996 14.808,3.35c4.496,1.354 8.142,3.421 10.905,6.179c2.775,2.779 4.166,6.787 4.166,12.012l0,0.088c0,6.683 -2.746,11.875 -8.229,15.592c-5.487,3.733 -13.196,5.57 -23.162,5.57c-7.359,0 -14.2,-1.125 -20.5,-3.383c-6.305,-2.275 -12.067,-5.679 -17.292,-10.208l-12,14.737c4.462,3.788 9.271,6.929 14.412,9.463c5.138,2.516 10.642,4.391 16.525,5.662c5.905,1.25 12.188,1.892 18.855,1.892c16.008,-0 28.42,-3.475 37.241,-10.4c8.821,-6.929 13.246,-16.721 13.246,-29.392l0,-0.191c0,-7.5 -1.25,-13.575 -3.75,-18.246c-2.483,-4.654 -5.779,-8.317 -9.912,-11.009" style="fill:#fff;fill-rule:nonzero;"/><path d="M3894.05,5694.58l-88.279,0l-0,137.417l88.279,0l-0,-18.333l-69.008,-0l-0.001,-40.73l58.609,0l-0,-18.333l-58.608,0l-0,-41.687l69.008,-0l-0,-18.334Z" style="fill:#fff;fill-rule:nonzero;"/><path d="M4086.9,5797.25l-64.929,-102.637l-17.484,-0.001l0,137.325l19.096,0.001l0,-101.075l64.742,101.074l17.671,0.001l-0,-137.325l-19.096,-0.001l-0,102.638Z" style="fill:#fff;fill-rule:nonzero;"/><path d="M4299.71,5792.88c0,6.354 -2.137,11.496 -6.37,15.4c-4.271,3.908 -11.496,5.871 -21.705,5.871l-29.391,-0l-0,-43.958l34.116,-0c8.334,-0 14.288,2.029 17.917,6.091c3.625,4.079 5.433,9.496 5.433,16.321l0,0.275Zm-57.466,-80.433l31.475,-0c8.058,-0 14.116,1.704 18.141,5.104c4.029,3.404 6.042,8.541 6.042,15.4c-0,6.491 -1.804,11.425 -5.433,14.791c-3.609,3.367 -8.992,5.071 -16.109,5.071l-34.116,0l-0,-40.366Zm50.087,49.15c8.629,-1.579 14.967,-5.209 19.008,-10.921c4.03,-5.692 6.042,-11.979 6.042,-18.854c0,-11.338 -3.312,-20.38 -9.929,-27.117c-6.613,-6.754 -16.683,-10.121 -30.242,-10.121l-54.15,0l0,137.429l55.763,0c12.412,0 22.241,-3.437 29.479,-10.312c7.242,-6.875 10.871,-15.904 10.871,-27.117l-0,-0.296c-0,-8.054 -2.346,-15.208 -7.034,-21.441c-4.704,-6.25 -11.3,-9.984 -19.808,-11.25" style="fill:#fff;fill-rule:nonzero;"/><path d="M4452.42,5783.54l21.425,-62.38l21.421,62.38l-42.846,-0Zm13.212,-88.925l-50.658,137.412l20.796,0l10.35,-30.154l55.45,0l10.362,30.154l20.8,0l-50.658,-137.412l-16.442,-0Z" style="fill:#fff;fill-rule:nonzero;"/><path d="M4714.62,5755.17l-58.783,-0l-0,-60.571l-19.271,-0l-0,137.412l19.271,0l-0,-58.508l58.783,0l0,58.508l19.292,0l-0,-137.412l-19.292,-0l0,60.571Z" style="fill:#fff;fill-rule:nonzero;"/><path d="M4933.38,5797.25l-64.929,-102.637l-17.483,-0.001l-0,137.325l19.095,0.001l0,-101.075l64.742,101.074l17.675,0.001l0,-137.325l-19.1,-0.001l0,102.638Z" style="fill:#fff;fill-rule:nonzero;"/><path d="M5157.79,5694.58l-88.279,0l-0.001,137.417l88.28,0l-0,-18.333l-69.009,-0l0,-40.73l58.609,0l-0,-18.333l-58.609,0l0,-41.687l69.009,-0l-0,-18.334Z" style="fill:#fff;fill-rule:nonzero;"/><path d="M5287.5,5755.54l0,-42.725l36.008,-0c5.605,-0 10.121,1.958 13.521,5.866c3.404,3.904 5.088,9.063 5.088,15.505c-0,6.42 -1.684,11.579 -5.088,15.483c-3.4,3.925 -7.916,5.871 -13.521,5.871l-36.008,-0Zm56.196,13.366c5.937,-3.3 10.592,-7.933 13.925,-13.887c3.35,-5.954 5.017,-12.9 5.017,-20.834c-0,-8.004 -1.65,-14.966 -4.963,-20.904c-3.3,-5.921 -7.954,-10.537 -13.942,-13.837c-5.975,-3.317 -12.97,-4.963 -20.975,-4.963l-54.529,0l0,137.517l19.271,0l0,-58.125l28.717,-0l29.321,58.125l22.866,0l-31.808,-60.367c2.45,-0.762 4.912,-1.508 7.1,-2.725" style="fill:#fff;fill-rule:nonzero;"/><path d="M5690.58,5764.21c-4.129,-2.675 -8.712,-4.721 -13.75,-6.145c-5.05,-1.405 -10.087,-2.621 -15.12,-3.63c-5.609,-1.129 -10.867,-2.358 -15.73,-3.645c-4.896,-1.284 -8.854,-3.28 -11.875,-5.988c-3.02,-2.725 -4.529,-6.65 -4.529,-11.825l0,-0.087c0,-6.875 2.604,-12.188 7.792,-15.938c5.191,-3.729 12.483,-5.625 21.875,-5.625c5.229,0 10.454,0.958 15.646,2.85c5.208,1.875 10.416,4.775 15.641,8.696l10.954,-15.329c-6.666,-4.842 -13.541,-8.438 -20.591,-10.817c-7.067,-2.358 -14.271,-3.542 -21.65,-3.542c-15.5,0 -27.5,3.525 -36.004,10.538c-8.509,7.033 -12.763,16.946 -12.763,29.725l0,0.104c0,8.004 1.338,14.392 4.029,19.183c2.675,4.792 6.217,8.455 10.625,11.009c4.409,2.55 9.238,4.425 14.513,5.625c5.246,1.196 10.471,2.237 15.625,3.125c5.366,0.883 10.296,1.996 14.808,3.35c4.5,1.354 8.146,3.421 10.904,6.179c2.779,2.779 4.167,6.787 4.167,12.012l-0,0.088c-0,6.683 -2.742,11.875 -8.229,15.592c-5.488,3.733 -13.196,5.57 -23.159,5.57c-7.362,0 -14.204,-1.125 -20.504,-3.383c-6.304,-2.275 -12.066,-5.679 -17.291,-10.208l-11.996,14.737c4.462,3.788 9.271,6.929 14.408,9.463c5.138,2.516 10.642,4.391 16.529,5.662c5.9,1.25 12.188,1.892 18.854,1.892c16.005,-0 28.421,-3.475 37.238,-10.4c8.821,-6.929 13.246,-16.721 13.246,-29.392l-0,-0.191c-0,-7.5 -1.25,-13.575 -3.75,-18.246c-2.479,-4.654 -5.779,-8.317 -9.913,-11.009" style="fill:#fff;fill-rule:nonzero;"/><path d="M5881.79,5753.83c-3.8,4.338 -8.871,6.509 -15.171,6.509l-34.583,-0l-0.001,-47.43l34.584,0.001c6.3,-0.001 11.371,2.17 15.171,6.508c3.82,4.358 5.729,10.121 5.729,17.291c-0,7.067 -1.909,12.78 -5.729,17.121m5.904,-54.012c-6.163,-3.488 -13.404,-5.242 -21.738,-5.242l-53.191,0l-0,137.413l19.27,-0l0,-53.3l33.921,-0c8.334,-0 15.575,-1.734 21.738,-5.209c6.179,-3.454 10.991,-8.35 14.429,-14.65c3.417,-6.287 5.137,-13.666 5.137,-22.121c0,-8.504 -1.72,-15.9 -5.137,-22.204c-3.438,-6.3 -8.25,-11.195 -14.429,-14.687" style="fill:#fff;fill-rule:nonzero;"/><path d="M6088.42,5783.46c-0,9.321 -2.604,16.821 -7.796,22.479c-5.188,5.68 -12.117,8.509 -20.746,8.509c-8.575,-0 -15.467,-2.829 -20.692,-8.509c-5.229,-5.658 -7.85,-13.158 -7.85,-22.479l0,-40.262c0,-9.392 2.621,-16.909 7.85,-22.55c5.225,-5.625 12.117,-8.459 20.692,-8.459c8.629,0 15.558,2.834 20.746,8.459c5.192,5.641 7.796,13.158 7.796,22.55l-0,40.262Zm-3.125,-83.979c-7.238,-4.183 -15.713,-6.283 -25.417,-6.283c-9.704,-0 -18.175,2.1 -25.417,6.283c-7.254,4.188 -12.879,10.088 -16.875,17.675c-4.008,7.588 -6.004,16.492 -6.004,26.7l0,38.942c0,10.141 1.996,19.029 6.004,26.65c3.996,7.621 9.621,13.525 16.875,17.725c7.242,4.183 15.713,6.266 25.417,6.266c9.704,0 18.179,-2.083 25.417,-6.266c7.258,-4.2 12.883,-10.104 16.875,-17.725c4.012,-7.621 6.008,-16.508 6.008,-26.65l0,-38.942c0,-10.208 -1.996,-19.112 -6.008,-26.7c-3.992,-7.587 -9.617,-13.487 -16.875,-17.675" style="fill:#fff;fill-rule:nonzero;"/><path d="M6239.79,5755.54l-0,-42.725l36.008,-0c5.604,-0 10.121,1.958 13.521,5.866c3.404,3.904 5.087,9.063 5.087,15.505c0,6.42 -1.683,11.579 -5.087,15.483c-3.4,3.925 -7.917,5.871 -13.521,5.871l-36.008,-0Zm56.195,13.366c5.938,-3.3 10.592,-7.933 13.926,-13.887c3.35,-5.954 5.016,-12.9 5.016,-20.834c0,-8.004 -1.65,-14.966 -4.962,-20.904c-3.3,-5.921 -7.954,-10.537 -13.942,-13.837c-5.975,-3.317 -12.971,-4.963 -20.975,-4.963l-54.529,0l-0,137.517l19.271,0l-0,-58.125l28.716,-0l29.321,58.125l22.867,0l-31.808,-60.367c2.45,-0.762 4.912,-1.508 7.1,-2.725" style="fill:#fff;fill-rule:nonzero;"/><path d="M6410.79,5712.92l38.837,-0l0,119.079l19.288,-0l-0,-119.079l38.837,-0l0,-18.334l-96.962,0l-0,18.334Z" style="fill:#fff;fill-rule:nonzero;"/><path d="M6657.04,5802.33l-32.988,-107.745l-20.971,-0.001l44.792,137.417l18.333,0l44.792,-137.417l-20.971,0.001l-32.987,107.745Z" style="fill:#fff;fill-rule:nonzero;"/><path d="M6903.12,5694.58l-88.279,0l-0,137.417l88.279,0l0,-18.333l-69.008,-0l-0,-40.73l58.608,0l0,-18.333l-58.608,0l-0,-41.687l69.008,-0l0,-18.334Z" style="fill:#fff;fill-rule:nonzero;"/><path d="M7032.83,5755.54l0,-42.725l36.009,-0c5.608,-0 10.121,1.958 13.525,5.866c3.4,3.904 5.104,9.063 5.104,15.505c-0,6.42 -1.704,11.579 -5.104,15.483c-3.404,3.925 -7.917,5.871 -13.525,5.871l-36.009,-0Zm56.2,13.366c5.938,-3.3 10.592,-7.933 13.921,-13.887c3.354,-5.954 5.021,-12.9 5.021,-20.834c0,-8.004 -1.65,-14.966 -4.967,-20.904c-3.3,-5.921 -7.95,-10.537 -13.941,-13.837c-5.971,-3.317 -12.967,-4.963 -20.971,-4.963l-54.534,0l0,137.517l19.271,0l0,-58.125l28.717,-0l29.321,58.125l22.867,0l-31.805,-60.367c2.446,-0.762 4.913,-1.508 7.1,-2.725" style="fill:#fff;fill-rule:nonzero;"/><path d="M7311.04,5694.58l-88.279,0l-0,137.417l88.279,0l-0,-18.333l-69.009,-0l0,-40.73l58.613,0l-0,-18.333l-58.613,0l0,-41.687l69.009,-0l-0,-18.334Z" style="fill:#fff;fill-rule:nonzero;"/><rect x="7421.5" y="5694.58" width="19.271" height="137.413" style="fill:#fff;"/><path d="M7640.25,5694.58l0,102.642l-64.929,-102.642l-17.483,0l-0,137.313l19.095,-0l0,-101.063l64.742,101.063l17.671,-0l-0,-137.313l-19.096,0Z" style="fill:#fff;fill-rule:nonzero;"/><path d="M5012.62,6083.17l0,30.383l29.792,-18.283l-0,177.329l29.375,-0l-0,-209.288l-29.375,0l-29.792,19.859Z" style="fill:#f3b92f;fill-rule:nonzero;"/><path d="M5328.79,6124.21c-0,11.317 -2.517,20.104 -7.55,26.334c-5.054,6.25 -12.171,9.358 -21.371,9.358c-9.325,0 -16.496,-3.088 -21.529,-9.288c-5.034,-6.179 -7.554,-14.929 -7.554,-26.25l-0,-0.154c-0,-11.129 2.52,-19.725 7.554,-25.766c5.033,-6.042 12.204,-9.063 21.529,-9.063c9.2,0 16.317,3.021 21.371,9.063c5.033,6.041 7.55,14.583 7.55,25.625l-0,0.141Zm-28.921,-63.041c-18.525,-0 -32.9,5.591 -43.108,16.77c-10.225,11.167 -15.346,26.946 -15.346,47.275l-0,0.159c-0,18.504 4.616,33.35 13.833,44.546c9.204,11.166 21.338,16.754 36.408,16.754c6.425,-0 12.1,-1.004 16.98,-3.021c2.012,-0.817 3.679,-1.996 5.295,-3.246l-46.737,92.204l31.667,0l44.616,-89.671c4.792,-9.495 8.438,-19.216 10.938,-29.145c2.5,-9.934 3.733,-19.167 3.733,-27.709l-0,-0.141c-0,-20.642 -5.088,-36.579 -15.242,-47.863c-10.191,-11.266 -24.533,-16.912 -43.037,-16.912" style="fill:#f3b92f;fill-rule:nonzero;"/><path d="M5619.79,6162.33c5.466,-7.379 9.737,-15.137 12.812,-23.245c3.071,-8.109 4.6,-15.851 4.6,-23.246l0,-0.142c0,-17.358 -5.121,-30.796 -15.4,-40.308c-10.262,-9.5 -24.808,-14.238 -43.612,-14.238c-16.596,0 -30.171,4.967 -40.73,14.896c-10.554,9.929 -17.133,23.925 -19.72,41.963l-0,0.137l30.362,0l0,-0.137c1.167,-9.221 4.396,-16.355 9.725,-21.392c5.313,-5.033 12.204,-7.55 20.658,-7.55c9.013,-0 15.971,2.308 20.867,6.908c4.879,4.6 7.329,11.079 7.329,19.429l0,0.296c0,5.275 -1.162,10.883 -3.525,16.838c-2.346,5.954 -5.625,11.704 -9.846,17.275l-72.983,97.308l0,25.471l118.038,-0l-0,-27.917l-79.167,0l60.592,-82.346Z" style="fill:#f3b92f;fill-rule:nonzero;"/><path d="M5837.92,6244.71l60.591,-82.341c5.467,-7.379 9.759,-15.125 12.813,-23.229c3.071,-8.109 4.616,-15.871 4.616,-23.267l0,-0.138c0,-17.362 -5.137,-30.8 -15.416,-40.295c-10.259,-9.496 -24.792,-14.255 -43.609,-14.255c-16.6,0 -30.175,4.967 -40.729,14.896c-10.558,9.934 -17.12,23.925 -19.725,41.963l0,0.137l30.384,0l-0,-0.137c1.146,-9.217 4.391,-16.338 9.704,-21.371c5.329,-5.033 12.221,-7.571 20.658,-7.571c9.029,0 15.975,2.308 20.871,6.929c4.896,4.6 7.342,11.075 7.342,19.425l-0,0.279c-0,5.296 -1.179,10.905 -3.525,16.842c-2.342,5.954 -5.642,11.717 -9.859,17.271l-72.97,97.312l-0,25.467l118.02,0l0,-27.917l-79.166,0Z" style="fill:#f3b92f;fill-rule:nonzero;"/><path d="M6179.29,5369.17l-1428.87,-0c-8.004,-0 -14.533,-6.546 -14.533,-14.534l-0,-4.721c-0,-7.987 6.529,-14.533 14.533,-14.533l1428.87,0c7.983,0 14.529,6.546 14.529,14.533l-0,4.721c-0,7.988 -6.546,14.534 -14.529,14.534" style="fill:#f3b92f;fill-rule:nonzero;"/><path d="M8520.71,2380.11l-258.558,435.366l0.175,0.208c-6.875,12.655 -7.275,22.413 1.596,35.763c16.146,24.221 27.725,51.408 32.796,80.225c29.183,165.921 -33.438,295.646 -154.704,407.571c-22.846,-39.342 -45.521,-73.454 -74.984,-104.529c-26.717,-28.213 -71.091,-23.875 -90.762,9.304c-76.338,128.717 -152.484,257.55 -228.646,386.371c-44.704,75.608 -89.309,149.687 -135.609,228.125c-16.145,-32.325 -27.17,-50.505 -40.991,-89.359c-61.908,-174.046 -0.154,-338.75 109.187,-482.133c66.925,-87.762 155.659,-146.738 259.98,-170.938c36.458,-8.454 78.387,-17.829 124.308,-9.27c-0,-0 -20.592,-31.113 -62.517,-45.159c-112.746,-37.775 -221.771,-15.45 -327.433,28.663c-102.325,42.729 -199.688,94.062 -288.679,161.458c-93.092,70.504 -228.925,187.171 -228.925,187.171l-179.529,168.35l361.075,664.117l534.341,0.154l1127.29,-1891.46l-479.413,0Z" style="fill:#fff;fill-rule:nonzero;"/><path d="M7689.5,2726.25l-263.683,-35.746l162.346,132.292l101.337,-96.546Z" style="fill:#fff;fill-rule:nonzero;"/><path d="M8153.25,2878.65c-50.696,-55.954 -117.987,-80.833 -184.133,-113.521c-7.813,-3.875 -12.879,-6.442 -12.879,-6.442c-0.542,0.867 -6.234,12.517 -13.805,27.95l-26.77,54.184c35.383,15 68.366,27.691 97.916,47.241c78.975,52.275 97.309,132.221 52.242,216.25l-1.338,2.5c33.488,6.65 66.734,29.792 79.046,74.584c27.775,-45.609 43.35,-87.155 50.779,-131.305c10.538,-62.654 2.292,-123.608 -41.058,-171.441" style="fill:#f3b92f;fill-rule:nonzero;"/><path d="M7765.92,2464.59c-111.771,-82.117 -164.842,-83.855 -540.242,-84.167c-366.079,-0.313 -382.829,-0.488 -382.917,-0.313l-489.966,0c-42.742,0 -27.813,26.509 -27.813,26.509l652.413,1200.69l179.533,-168.366l-562.396,-920.263l325.104,0l355.796,9.479c0,0.001 187.692,8.284 304.254,42.709c82.642,24.392 140.471,37.954 367.188,169.687c-0,0 -72.359,-196.195 -180.954,-275.97" style="fill:#f3b92f;fill-rule:nonzero;"/><path d="M4204.62,4271.58l-1649.29,0l0,-412.396l1935.23,0.001l-285.938,412.395Z" style="fill:#fff;fill-rule:nonzero;"/><path d="M4204.62,2792.45l-1649.29,0l0,-412.396l1935.23,0l-285.938,412.396Z" style="fill:#fff;fill-rule:nonzero;"/><path d="M3954.06,3530l-1398.73,0l0,-412.396l1641.23,0l-242.5,412.396Z" style="fill:#f3b92f;fill-rule:nonzero;"/><path d="M6130.17,3117.42l-1059.88,-0c-84.962,-0 -153.837,-68.875 -153.837,-153.854l-0,-17.259c-0,-84.967 68.875,-153.854 153.837,-153.854l12.642,0l-0.004,-0.138l1286.27,0l-225.854,-412.275l-1060.42,0l0,0.088l-79.787,-0c-283.213,-0 -512.817,229.583 -512.817,512.812l-0,124.25c-0,283.213 229.604,512.813 512.812,512.813l43.821,0l0,-0.45l1052.4,0c0.817,0 1.596,0.121 2.413,0.121c83.837,1.304 151.441,69.566 151.441,153.733l0,21.892c0,84.967 -68.887,153.854 -153.854,153.854l-12.187,0l-0,0.071l-714.321,-0c22.133,-0 43.854,0.017 64.616,0.017l-204.6,295.054l-81.32,117.254l978.629,-0c283.229,-0 512.812,-229.583 512.812,-512.813l0,-128.504c0,-283.212 -229.583,-512.812 -512.812,-512.812" style="fill:#fff;fill-rule:nonzero;"/><path d="M5372.83,3859.22l-325.887,-0l-0,-0.071c-85.033,0 -159.304,0.017 -206.042,0.087c-196.3,0.313 -267.5,141.684 -269.408,141.338l-187.9,270.987l767.917,0.001l-0.001,-0.017l81.338,-117.254l204.6,-295.054c-20.762,-0 -42.483,-0.017 -64.617,-0.017" style="fill:#f3b92f;fill-rule:nonzero;"/></g></g></svg>